<?xml version="1.0" encoding="iso-8859-1"?>
<!-- Generator: Adobe Illustrator 19.0.0, SVG Export Plug-In . SVG Version: 6.00 Build 0)  -->
<svg version="1.1" id="Layer_1" xmlns="http://www.w3.org/2000/svg" xmlns:xlink="http://www.w3.org/1999/xlink" x="0px" y="0px"
	 viewBox="0 0 512 512" style="enable-background:new 0 0 512 512;" xml:space="preserve">
<path style="fill:#155C92;" d="M389.115,125.883L182.253,6.45c-13.066-7.544-24.905-8.245-33.454-3.277L90.411,37.104
	c0.027-0.016,0.057-0.028,0.085-0.045C82.008,41.943,76.74,52.388,76.697,67.26l-0.674,237.702
	c-0.085,29.835,20.898,66.178,46.862,81.168l206.863,119.432c13.441,7.759,25.573,8.262,34.17,2.818
	c-0.239,0.151-0.472,0.314-0.718,0.458l58.386-33.93c8.44-4.905,13.672-15.333,13.715-30.155l0.674-237.702
	C436.062,177.209,415.079,140.873,389.115,125.883z"/>
<g style="enable-background:new    ;">
	<path style="fill:#1A6FB0;" d="M421.588,474.907l-58.386,33.93c8.44-4.905,13.674-15.333,13.715-30.155l58.386-33.93
		C435.261,459.573,430.027,470.002,421.588,474.907z"/>
	<g>
		<path style="fill:#1D81CD;" d="M90.411,37.104l58.386-33.93c8.549-4.968,20.388-4.267,33.454,3.277l-58.386,33.93
			C110.799,32.837,98.961,32.135,90.411,37.104z"/>
		<polygon style="fill:#1D81CD;" points="377.591,240.981 435.977,207.05 435.303,444.752 376.917,478.682 		"/>
	</g>
	<polygon style="fill:#3D99E2;" points="123.866,40.381 182.253,6.45 389.115,125.883 330.729,159.813 	"/>
	<path style="fill:#5AAAE7;" d="M330.729,159.813l58.386-33.93c25.965,14.99,46.946,51.327,46.862,81.168l-58.386,33.93
		C377.676,211.14,356.693,174.804,330.729,159.813z"/>
</g>
<g style="enable-background:new    ;">
	<path style="fill:#3D5A98;" d="M197.578,295.841l0.147-51.93l39.023,22.53l0.109-38.3c0.126-44.448,23.821-55.001,58.325-35.08
		c16.524,9.54,30.723,19.15,34.866,22.175l-0.132,46.445l-23.934-13.803c-18.76-10.831-22.422-2.681-22.465,12.351l-0.094,33.161
		l44.747,25.835l-5.971,48.568l-38.925-22.473l-0.376,133.245l-46.675-26.948l0.378-133.245L197.578,295.841"/>
	<path style="fill:#FFFFFF;" d="M236.857,229.185l-0.109,38.3l-39.023-22.53l-0.147,51.93l39.023,22.53l-0.375,132.151
		l46.675,26.948l0.375-132.151l38.924,22.473l5.97-48.568l-44.747-25.835l0.094-33.161c0.043-15.032,3.704-23.182,22.465-12.351
		l23.934,13.803l0.132-46.445c-4.142-3.026-18.341-12.635-34.866-22.175C260.678,174.184,236.983,184.738,236.857,229.185z"/>
</g>
<g>
</g>
<g>
</g>
<g>
</g>
<g>
</g>
<g>
</g>
<g>
</g>
<g>
</g>
<g>
</g>
<g>
</g>
<g>
</g>
<g>
</g>
<g>
</g>
<g>
</g>
<g>
</g>
<g>
</g>
</svg>
